<?xml version="1.0" encoding="utf-8"?>
<!-- Generator: Adobe Illustrator 19.1.0, SVG Export Plug-In . SVG Version: 6.00 Build 0)  -->
<svg version="1.1" id="Layer_1" xmlns="http://www.w3.org/2000/svg" xmlns:xlink="http://www.w3.org/1999/xlink" x="0px" y="0px"
	 viewBox="2 157.9 572 252" style="enable-background:new 2 157.9 572 252;" xml:space="preserve">
<style type="text/css">
	.st0{fill:#F2F2F2;}
	.st1{fill:#a8a8a8;}
</style>
<title>Rectangle with padding</title>
<desc>Created with Sketch.</desc>
<g id="Group-2" transform="translate(36.000000, 32.000000)">
	<g id="Group">
		<path id="Fill-1" class="st0" d="M24.3,223V242h0.3c3.6-7.3,8-12.7,13.2-16.1c5.2-3.5,11.8-5.1,19.8-4.9v15.6
			c-5.9,0-10.9,0.8-15.1,2.4c-4.2,1.6-7.5,4-10.1,7.1c-2.6,3.1-4.4,6.9-5.6,11.4c-1.2,4.5-1.7,9.6-1.7,15.4v39.9H10.4V223H24.3"/>
		<path id="Fill-2" class="st0" d="M129.5,249.4c-1.3-3.1-3.1-5.8-5.4-8.1c-2.3-2.3-4.9-4-8-5.4c-3.1-1.3-6.4-2-10.1-2
			c-3.8,0-7.3,0.7-10.3,2c-3.1,1.3-5.7,3.2-7.9,5.5c-2.2,2.3-3.9,5-5.2,8.1c-1.3,3.1-2,6.3-2.3,9.8h51.5
			C131.6,255.8,130.8,252.5,129.5,249.4L129.5,249.4z M133.1,307c-6.7,5.1-15.2,7.6-25.3,7.6c-7.2,0-13.4-1.2-18.7-3.5
			c-5.3-2.3-9.7-5.5-13.3-9.7c-3.6-4.2-6.3-9.1-8.1-14.9c-1.8-5.8-2.8-12.1-3-18.9c0-6.8,1-13.1,3.1-18.7c2.1-5.7,5-10.6,8.8-14.7
			c3.8-4.2,8.2-7.4,13.4-9.7c5.1-2.3,10.8-3.5,16.9-3.5c8,0,14.6,1.6,19.9,4.9c5.3,3.3,9.5,7.5,12.7,12.6c3.2,5.1,5.4,10.6,6.6,16.7
			c1.2,6,1.7,11.7,1.5,17.2H80.3c-0.1,3.9,0.3,7.7,1.4,11.2c1,3.5,2.7,6.7,5,9.4c2.3,2.7,5.3,4.9,8.9,6.5c3.6,1.6,7.8,2.4,12.7,2.4
			c6.2,0,11.4-1.4,15.4-4.3c4-2.9,6.6-7.3,7.9-13.2h14.6C144.1,294.4,139.8,301.9,133.1,307L133.1,307z"/>
		<path id="Fill-3" class="st0" d="M190,188.9v46.7h0.5c3.1-5.2,7.1-9,12-11.4c4.9-2.4,9.6-3.6,14.2-3.6c6.6,0,12,0.9,16.2,2.7
			c4.2,1.8,7.6,4.3,10,7.5c2.4,3.2,4.1,7.1,5.1,11.6c1,4.6,1.5,9.6,1.5,15.2v55.2h-24.6v-50.7c0-7.4-1.2-12.9-3.5-16.6
			c-2.3-3.6-6.4-5.5-12.3-5.5c-6.7,0-11.6,2-14.6,6c-3,4-4.5,10.6-4.5,19.7v47h-24.6V188.9H190"/>
		<path id="Fill-4" class="st0" d="M270.7,312.7h24.6V223h-24.6V312.7z M270.7,209.2h24.6v-20.3h-24.6V209.2z"/>
		<polyline id="Fill-5" class="st0" points="338.7,312.7 308,223 333.8,223 352.7,284.3 353.1,284.3 372,223 396.5,223 366.1,312.7 
			338.7,312.7 		"/>
		<path id="Fill-6" class="st0" d="M462.7,244c-3-3.2-7.4-4.9-13.4-4.9c-3.9,0-7.2,0.7-9.8,2c-2.6,1.3-4.7,3-6.2,4.9
			c-1.6,2-2.7,4.1-3.3,6.2c-0.6,2.2-1,4.2-1.1,5.9h40.1C467.7,252,465.6,247.3,462.7,244L462.7,244z M434.8,291.2
			c3.7,3.6,9,5.4,16,5.4c5,0,9.3-1.2,12.8-3.7c3.6-2.5,5.8-5.1,6.6-7.9h21.7c-3.5,10.8-8.8,18.5-16,23.1c-7.2,4.6-15.9,6.9-26,6.9
			c-7.1,0-13.4-1.1-19.1-3.4c-5.7-2.3-10.5-5.5-14.4-9.6c-3.9-4.2-7-9.1-9.1-14.9c-2.1-5.8-3.2-12.1-3.2-19.1c0-6.7,1.1-13,3.3-18.7
			c2.2-5.8,5.3-10.8,9.4-15c4-4.2,8.9-7.6,14.5-10c5.6-2.4,11.8-3.6,18.7-3.6c7.6,0,14.3,1.5,20,4.4c5.7,2.9,10.3,6.9,14,11.9
			c3.6,5,6.3,10.6,7.9,17c1.6,6.4,2.2,13,1.7,20h-64.7C429.1,281.9,431.1,287.6,434.8,291.2L434.8,291.2z"/>
	</g>
	<path id="Fill-1_1_" class="st1" d="M24.3,223V242h0.3c3.6-7.3,8-12.7,13.2-16.1c5.2-3.5,11.8-5.1,19.8-4.9v15.6
		c-5.9,0-10.9,0.8-15.1,2.4c-4.2,1.6-7.5,4-10.1,7.1c-2.6,3.1-4.4,6.9-5.6,11.4c-1.2,4.5-1.7,9.6-1.7,15.4v39.9H10.4V223H24.3"/>
	<path id="Fill-2_1_" class="st1" d="M129.5,249.4c-1.3-3.1-3.1-5.8-5.4-8.1c-2.3-2.3-4.9-4-8-5.4c-3.1-1.3-6.4-2-10.1-2
		c-3.8,0-7.3,0.7-10.3,2c-3.1,1.3-5.7,3.2-7.9,5.5c-2.2,2.3-3.9,5-5.2,8.1c-1.3,3.1-2,6.3-2.3,9.8h51.5
		C131.6,255.8,130.8,252.5,129.5,249.4L129.5,249.4z M133.1,307c-6.7,5.1-15.2,7.6-25.3,7.6c-7.2,0-13.4-1.2-18.7-3.5
		c-5.3-2.3-9.7-5.5-13.3-9.7c-3.6-4.2-6.3-9.1-8.1-14.9c-1.8-5.8-2.8-12.1-3-18.9c0-6.8,1-13.1,3.1-18.7c2.1-5.7,5-10.6,8.8-14.7
		c3.8-4.2,8.2-7.4,13.4-9.7c5.1-2.3,10.8-3.5,16.9-3.5c8,0,14.6,1.6,19.9,4.9c5.3,3.3,9.5,7.5,12.7,12.6c3.2,5.1,5.4,10.6,6.6,16.7
		c1.2,6,1.7,11.7,1.5,17.2H80.3c-0.1,3.9,0.3,7.7,1.4,11.2c1,3.5,2.7,6.7,5,9.4c2.3,2.7,5.3,4.9,8.9,6.5c3.6,1.6,7.8,2.4,12.7,2.4
		c6.2,0,11.4-1.4,15.4-4.3c4-2.9,6.6-7.3,7.9-13.2h14.6C144.1,294.4,139.8,301.9,133.1,307L133.1,307z"/>
	<path id="Fill-3_1_" class="st1" d="M190,188.9v46.7h0.5c3.1-5.2,7.1-9,12-11.4c4.9-2.4,9.6-3.6,14.2-3.6c6.6,0,12,0.9,16.2,2.7
		c4.2,1.8,7.6,4.3,10,7.5c2.4,3.2,4.1,7.1,5.1,11.6c1,4.6,1.5,9.6,1.5,15.2v55.2h-24.6v-50.7c0-7.4-1.2-12.9-3.5-16.6
		c-2.3-3.6-6.4-5.5-12.3-5.5c-6.7,0-11.6,2-14.6,6c-3,4-4.5,10.6-4.5,19.7v47h-24.6V188.9H190"/>
	<path id="Fill-4_1_" class="st1" d="M270.7,312.7h24.6V223h-24.6V312.7z M270.7,209.2h24.6v-20.3h-24.6V209.2z"/>
	<polyline id="Fill-5_1_" class="st1" points="338.7,312.7 308,223 333.8,223 352.7,284.3 353.1,284.3 372,223 396.5,223 
		366.1,312.7 338.7,312.7 	"/>
	<path id="Fill-6_1_" class="st1" d="M462.7,244c-3-3.2-7.4-4.9-13.4-4.9c-3.9,0-7.2,0.7-9.8,2c-2.6,1.3-4.7,3-6.2,4.9
		c-1.6,2-2.7,4.1-3.3,6.2c-0.6,2.2-1,4.2-1.1,5.9h40.1C467.7,252,465.6,247.3,462.7,244L462.7,244z M434.8,291.2
		c3.7,3.6,9,5.4,16,5.4c5,0,9.3-1.2,12.8-3.7c3.6-2.5,5.8-5.1,6.6-7.9h21.7c-3.5,10.8-8.8,18.5-16,23.1c-7.2,4.6-15.9,6.9-26,6.9
		c-7.1,0-13.4-1.1-19.1-3.4c-5.7-2.3-10.5-5.5-14.4-9.6c-3.9-4.2-7-9.1-9.1-14.9c-2.1-5.8-3.2-12.1-3.2-19.1c0-6.7,1.1-13,3.3-18.7
		c2.2-5.8,5.3-10.8,9.4-15c4-4.2,8.9-7.6,14.5-10c5.6-2.4,11.8-3.6,18.7-3.6c7.6,0,14.3,1.5,20,4.4c5.7,2.9,10.3,6.9,14,11.9
		c3.6,5,6.3,10.6,7.9,17c1.6,6.4,2.2,13,1.7,20h-64.7C429.1,281.9,431.1,287.6,434.8,291.2L434.8,291.2z"/>
</g>
</svg>
