<?xml version="1.0" encoding="UTF-8" standalone="no"?>
<svg width="101px" height="117px" viewBox="0 0 101 117" version="1.1" xmlns="http://www.w3.org/2000/svg" xmlns:xlink="http://www.w3.org/1999/xlink">
    <!-- Generator: Sketch 3.8.3 (29802) - http://www.bohemiancoding.com/sketch -->
    <title>Page 1 Copy 3</title>
    <desc>Created with Sketch.</desc>
    <defs>
        <polygon id="path-1" points="0 116.225166 100.634069 116.225166 100.634069 0.745390728 0 0.745390728"></polygon>
    </defs>
    <g id="Welcome" stroke="none" stroke-width="1" fill="none" fill-rule="evenodd">
        <g id="Page-1-Copy-3">
            <polygon id="Fill-1" fill="#F9CF51" points="50.48586 0.77467947 0.168436923 29.6605073 -0.000155384615 87.3996199 50.1478985 116.254454 100.463768 87.3694013 100.633914 29.6287391"></polygon>
            <g id="Group-12" transform="translate(0.000000, 0.029444)">
                <path d="M14.8578769,54.0439272 L14.8578769,57.0433113 L14.9130385,57.0433113 C15.4833,55.8880331 16.1817538,55.0333907 17.0099538,54.4832583 C17.8381538,53.9339007 18.8854462,53.6774305 20.1541615,53.7138477 L20.1541615,56.1902185 C19.2156385,56.1902185 18.4169615,56.3188411 17.7542462,56.5753113 C17.0930846,56.8325563 16.5585615,57.2075762 16.1545615,57.7034702 C15.7490077,58.1985894 15.4553308,58.7998609 15.2719769,59.5065099 C15.0878462,60.2116093 14.9953923,61.0244106 14.9953923,61.9402649 L14.9953923,68.2683377 L12.6506385,68.2683377 L12.6506385,54.0439272 L14.8578769,54.0439272 L14.8578769,54.0439272 Z" id="Fill-2" fill="#4D4D4D"></path>
                <path d="M31.4509338,58.226096 C31.2396108,57.7309768 30.9552569,57.3048179 30.5963185,56.9468444 C30.2381569,56.5896457 29.8147338,56.3052815 29.32838,56.0937517 C28.8404723,55.8837715 28.3020646,55.7776192 27.7131569,55.7776192 C27.10638,55.7776192 26.5586492,55.8837715 26.0715185,56.0937517 C25.5851646,56.3052815 25.1664031,56.5942947 24.8167877,56.9607914 C24.4663954,57.3280629 24.1905877,57.7542219 23.9893646,58.240043 C23.7865877,58.7258642 23.6669415,59.2434536 23.6304262,59.7943609 L31.8246338,59.7943609 C31.7881185,59.2434536 31.6622569,58.7219901 31.4509338,58.226096 M32.0173108,67.3606192 C30.9498185,68.1679967 29.6072954,68.5724603 27.9897415,68.5724603 C26.8492185,68.5724603 25.8609723,68.3880497 25.0242262,68.021553 C24.1859262,67.6550563 23.4820338,67.1405662 22.9141031,66.4804073 C22.3430646,65.8202483 21.91498,65.0314669 21.6298492,64.1148377 C21.3454954,63.1974338 21.1838954,62.1978974 21.1481569,61.1146788 C21.1481569,60.0330099 21.3128646,59.0435464 21.6438338,58.1447384 C21.97558,57.2451556 22.4394031,56.466447 23.0376338,55.8047384 C23.6350877,55.1445795 24.3444185,54.6308642 25.1617415,54.2643675 C25.9798415,53.8978709 26.8756338,53.7142351 27.8506723,53.7142351 C29.1201646,53.7142351 30.1728954,53.9753543 31.0111954,54.4975927 C31.8471646,55.020606 32.5184262,55.6854139 33.0242031,56.4927914 C33.5292031,57.3009437 33.8795954,58.179606 34.0730492,59.134202 C34.2657262,60.0880232 34.3441954,60.9961291 34.3069031,61.857745 L23.6304262,61.857745 C23.61178,62.4822616 23.6855877,63.0734603 23.8518492,63.6321159 C24.0173338,64.1923212 24.2830415,64.6882152 24.6513031,65.1190232 C25.0195646,65.5490563 25.4880492,65.8938576 26.0583108,66.149553 C26.6285723,66.4075728 27.2998338,66.5361954 28.0720954,66.5361954 C29.06578,66.5361954 29.8799954,66.3060695 30.5139646,65.8481424 C31.1479338,65.3894404 31.5659185,64.6913146 31.7686954,63.7568642 L34.0870338,63.7568642 C33.7739338,65.3522483 33.0848031,66.5540166 32.0173108,67.3606192" id="Fill-4" fill="#4D4D4D"></path>
                <path d="M41.0661338,48.6246576 L41.0661338,56.0251013 L41.1492646,56.0251013 C41.6449415,55.1991278 42.2796877,54.599406 43.0527262,54.2228364 C43.8257646,53.8470417 44.5786031,53.6595318 45.3151262,53.6595318 C46.3624185,53.6595318 47.2224723,53.8013265 47.8945108,54.0849159 C48.5642185,54.3692801 49.09408,54.7636709 49.4802108,55.2673132 C49.8663415,55.7732801 50.1374877,56.3877238 50.2952031,57.112194 C50.4505877,57.8374391 50.5290569,58.6393927 50.5290569,59.5196046 L50.5290569,68.2690351 L46.6118108,68.2690351 L46.6118108,60.2347768 C46.6118108,59.0609026 46.4269031,58.1853397 46.0601954,57.6073132 C45.6919338,57.0292868 45.0385415,56.7410483 44.1007954,56.7410483 C43.0333031,56.7410483 42.2618185,57.0571808 41.7840108,57.6894457 C41.3054262,58.3224854 41.0661338,59.3623132 41.0661338,60.8120285 L41.0661338,68.2690351 L37.1481108,68.2690351 L37.1481108,48.6246576 L41.0661338,48.6246576 Z" id="Fill-6" fill="#4D4D4D"></path>
                <mask id="mask-2" fill="white">
                    <use xlink:href="#path-1"></use>
                </mask>
                <g id="Clip-9"></g>
                <path d="M53.6185692,68.2683377 L57.5365923,68.2683377 L57.5365923,54.0439272 L53.6185692,54.0439272 L53.6185692,68.2683377 Z M53.6185692,51.8426225 L57.5365923,51.8426225 L57.5365923,48.6247351 L53.6185692,48.6247351 L53.6185692,51.8426225 Z" id="Fill-8" fill="#4D4D4D" mask="url(#mask-2)"></path>
                <polygon id="Fill-10" fill="#4D4D4D" mask="url(#mask-2)" points="64.1576085 68.2686477 59.27387 54.0442371 63.3853469 54.0442371 66.3920392 63.7567868 66.4464238 63.7567868 69.4538931 54.0442371 73.3439469 54.0442371 68.5161469 68.2686477"></polygon>
                <path d="M83.5921062,57.3733132 C83.1228446,56.859598 82.4104062,56.602353 81.4547908,56.602353 C80.8293677,56.602353 80.3096062,56.7085053 79.8962831,56.9192603 C79.4814062,57.1307901 79.1504369,57.3919093 78.9033754,57.7033927 C78.65476,58.015651 78.4799523,58.3449556 78.3789523,58.6936311 C78.2779523,59.0430815 78.2173523,59.3545649 78.1994831,59.6296311 L84.5718062,59.6296311 C84.3876754,58.6393927 84.0613677,57.8870285 83.5921062,57.3733132 M79.1651985,64.8566642 C79.7533292,65.4269424 80.5986215,65.7105318 81.7026292,65.7105318 C82.4935369,65.7105318 83.1741215,65.512949 83.7443831,65.1185583 C84.3146446,64.7241675 84.6634831,64.3065318 84.7932292,63.8664258 L88.2412138,63.8664258 C87.6888215,65.5726113 86.8443062,66.7922007 85.7030062,67.5267437 C84.5624831,68.2597371 83.1834446,68.6262338 81.5651138,68.6262338 C80.4432369,68.6262338 79.4316831,68.447247 78.5304523,68.0900483 C77.6284446,67.7313 76.8655062,67.2230086 76.24086,66.5628497 C75.61466,65.9026907 75.1321908,65.1139093 74.7926754,64.1972801 C74.4516062,63.2798762 74.2822369,62.2702669 74.2822369,61.170002 C74.2822369,60.1061543 74.4562677,59.1159159 74.8058831,58.1985119 C75.1554985,57.2811079 75.6511754,56.4884523 76.2960215,55.8189954 C76.9393138,55.1495384 77.7069138,54.6211013 78.5988215,54.2367834 C79.4907292,53.8509159 80.4797523,53.6595318 81.5651138,53.6595318 C82.7778908,53.6595318 83.8368369,53.892757 84.7380677,54.3599821 C85.6392985,54.828757 86.3789292,55.4563728 86.9585138,56.2451543 C87.5380985,57.0347106 87.9560831,57.9335185 88.2140215,58.9408033 C88.4711831,59.9504126 88.56286,61.0049623 88.4906062,62.1052272 L78.1994831,62.1052272 C78.2546446,63.3705318 78.5762908,64.2887106 79.1651985,64.8566642" id="Fill-11" fill="#4D4D4D" mask="url(#mask-2)"></path>
            </g>
        </g>
    </g>
</svg>