<?xml version="1.0" encoding="utf-8"?>
<!-- Generator: Adobe Illustrator 22.1.0, SVG Export Plug-In . SVG Version: 6.00 Build 0)  -->
<svg version="1.1" id="Layer_1" xmlns="http://www.w3.org/2000/svg" xmlns:xlink="http://www.w3.org/1999/xlink" x="0px" y="0px"
	 viewBox="0 0 1920 1080" style="enable-background:new 0 0 1920 1080;" xml:space="preserve">
<style type="text/css">
	.st0{fill-rule:evenodd;clip-rule:evenodd;fill:#C11C63;}
	.st1{fill-rule:evenodd;clip-rule:evenodd;fill:#AB1E5B;}
	.st2{fill-rule:evenodd;clip-rule:evenodd;fill:#E4358A;}
	.st3{fill-rule:evenodd;clip-rule:evenodd;fill:#F25522;}
	.st4{fill-rule:evenodd;clip-rule:evenodd;fill:#C94719;}
	.st5{fill-rule:evenodd;clip-rule:evenodd;fill:#F47B20;}
	.st6{fill-rule:evenodd;clip-rule:evenodd;fill:#F2A018;}
	.st7{fill-rule:evenodd;clip-rule:evenodd;fill:#B77D2B;}
	.st8{fill-rule:evenodd;clip-rule:evenodd;fill:#FED65D;}
	.st9{fill-rule:evenodd;clip-rule:evenodd;fill:#24CECE;}
	.st10{fill-rule:evenodd;clip-rule:evenodd;fill:#1EADB3;}
	.st11{fill-rule:evenodd;clip-rule:evenodd;fill:#55E1E5;}
	.st12{fill-rule:evenodd;clip-rule:evenodd;fill:#B53621;}
	.st13{fill-rule:evenodd;clip-rule:evenodd;fill:#A0B246;}
	.st14{fill-rule:evenodd;clip-rule:evenodd;fill:#214745;}
	.st15{fill-rule:evenodd;clip-rule:evenodd;fill:#C7D832;}
	.st16{fill-rule:evenodd;clip-rule:evenodd;fill:#0A1717;}
	.st17{fill-rule:evenodd;clip-rule:evenodd;fill:#2E6361;}
	.st18{fill-rule:evenodd;clip-rule:evenodd;fill:#B3C938;}
	.st19{fill-rule:evenodd;clip-rule:evenodd;fill:#F3AD1A;}
	.st20{fill-rule:evenodd;clip-rule:evenodd;fill:#3D2403;}
	.st21{fill-rule:evenodd;clip-rule:evenodd;fill:#AB6612;}
	.st22{fill-rule:evenodd;clip-rule:evenodd;fill:#2B739E;}
	.st23{fill-rule:evenodd;clip-rule:evenodd;fill:#4099D1;}
</style>
<rect y="-3.5" width="1920" height="1087"/>
<polygon class="st0" points="1495.2,353.5 1556.9,389.1 1556.9,312.5 1495.2,276.9 1495.2,353.5 "/>
<polygon class="st1" points="1618.6,353.5 1556.9,389.1 1556.9,312.5 1618.6,276.9 1618.6,353.5 "/>
<polygon class="st2" points="1556.9,241.3 1495.2,276.9 1556.9,312.5 1618.6,276.9 1556.9,241.3 "/>
<polygon class="st3" points="1433.5,241.3 1495.2,276.9 1495.2,200.4 1433.5,164.7 1433.5,241.3 "/>
<polygon class="st4" points="1556.9,241.3 1495.2,276.9 1495.2,200.4 1556.9,164.7 1556.9,241.3 "/>
<polygon class="st5" points="1495.2,129.1 1433.5,164.7 1495.2,200.4 1556.9,164.7 1495.2,129.1 "/>
<polygon class="st6" points="1556.9,761.2 1495.2,725.6 1495.2,802.2 1556.9,837.8 1556.9,761.2 "/>
<polygon class="st7" points="1556.9,761.2 1618.6,725.6 1618.6,802.2 1556.9,837.8 1556.9,761.2 "/>
<polygon class="st8" points="1556.9,690 1495.2,725.6 1556.9,761.2 1618.6,725.6 1556.9,690 "/>
<polygon class="st9" points="1742,873.4 1680.3,837.8 1680.3,914.3 1742,950 1742,873.4 "/>
<polygon class="st10" points="1742,873.4 1803.7,837.8 1803.7,914.3 1742,950 1742,873.4 "/>
<polygon class="st11" points="1742,802.2 1680.3,837.8 1742,873.4 1803.7,837.8 1742,802.2 "/>
<polygon class="st6" points="238.2,465.6 176.5,501.3 176.5,424.7 238.2,389.1 238.2,465.6 "/>
<polygon class="st12" points="114.8,465.6 176.5,501.3 176.5,424.7 114.8,389.1 114.8,465.6 "/>
<polygon class="st8" points="176.5,353.5 114.8,389.1 176.5,424.7 238.2,389.1 176.5,353.5 "/>
<polygon class="st5" points="546.7,200.4 485,164.7 485,241.3 546.7,276.9 546.7,200.4 "/>
<polygon class="st3" points="546.7,200.4 608.5,164.7 608.5,241.3 546.7,276.9 546.7,200.4 "/>
<polygon class="st4" points="546.7,129.1 485,164.7 546.7,200.4 608.5,164.7 546.7,129.1 "/>
<polygon class="st5" points="238.2,914.3 299.9,950 299.9,873.4 238.2,837.8 238.2,914.3 "/>
<polygon class="st3" points="361.6,914.3 299.9,950 299.9,873.4 361.6,837.8 361.6,914.3 "/>
<polygon class="st4" points="299.9,802.2 238.2,837.8 299.9,873.4 361.6,837.8 299.9,802.2 "/>
<polygon class="st8" points="238.2,761.2 299.9,725.6 299.9,802.2 238.2,837.8 238.2,761.2 "/>
<polygon class="st7" points="238.2,761.2 176.5,725.6 176.5,802.2 238.2,837.8 238.2,761.2 "/>
<polygon class="st6" points="238.2,690 176.5,725.6 238.2,761.2 299.9,725.6 238.2,690 "/>
<polygon class="st9" points="53.1,802.2 114.8,837.8 114.8,761.2 53.1,725.6 53.1,802.2 "/>
<polygon class="st10" points="176.5,802.2 114.8,837.8 114.8,761.2 176.5,725.6 176.5,802.2 "/>
<polygon class="st11" points="114.8,690 53.1,725.6 114.8,761.2 176.5,725.6 114.8,690 "/>
<polygon class="st10" points="423.3,950 485,914.3 485,990.9 423.3,1026.5 423.3,950 "/>
<polygon class="st9" points="423.3,950 361.6,914.3 361.6,990.9 423.3,1026.5 423.3,950 "/>
<polygon class="st11" points="423.3,878.7 361.6,914.3 423.3,950 485,914.3 423.3,878.7 "/>
<polygon class="st7" points="1865.4,200.4 1918.2,169.9 1918.2,246.4 1865.4,276.9 1865.4,200.4 "/>
<polygon class="st6" points="1865.4,200.4 1803.7,164.7 1803.7,241.3 1865.4,276.9 1865.4,200.4 "/>
<polygon class="st8" points="1865.4,129.1 1803.7,164.7 1865.4,200.4 1918.2,169.9 1918.2,159.6 1865.4,129.1 "/>
<polygon class="st13" points="1556.9,88.2 1495.2,52.6 1495.2,129.1 1556.9,164.7 1556.9,88.2 "/>
<polygon class="st14" points="1556.9,88.2 1618.6,52.6 1618.6,129.1 1556.9,164.7 1556.9,88.2 "/>
<polygon class="st15" points="1556.9,16.9 1495.2,52.6 1556.9,88.2 1618.6,52.6 1556.9,16.9 "/>
<polygon class="st5" points="114.8,312.5 53.1,276.9 53.1,353.5 114.8,389.1 114.8,312.5 "/>
<polygon class="st3" points="114.8,312.5 176.5,276.9 176.5,353.5 114.8,389.1 114.8,312.5 "/>
<polygon class="st4" points="114.8,241.3 53.1,276.9 114.8,312.5 176.5,276.9 114.8,241.3 "/>
<polygon class="st14" points="1865.4,424.7 1803.7,389.1 1803.7,465.6 1865.4,501.3 1865.4,424.7 "/>
<polygon class="st13" points="1865.4,424.7 1918.2,394.2 1918.2,470.8 1865.4,501.3 1865.4,424.7 "/>
<polygon class="st15" points="1865.4,353.5 1803.7,389.1 1865.4,424.7 1918.2,394.2 1918.2,384 1865.4,353.5 "/>
<polygon class="st14" points="299.9,200.4 238.2,164.7 238.2,241.3 299.9,276.9 299.9,200.4 "/>
<polygon class="st16" points="299.9,200.4 361.6,164.7 361.6,241.3 299.9,276.9 299.9,200.4 "/>
<polygon class="st17" points="299.9,129.1 238.2,164.7 299.9,200.4 361.6,164.7 299.9,129.1 "/>
<polygon class="st13" points="53.1,200.4 0.3,169.9 0.3,246.4 53.1,276.9 53.1,200.4 "/>
<polygon class="st18" points="53.1,200.4 114.8,164.7 114.8,241.3 53.1,276.9 53.1,200.4 "/>
<polygon class="st15" points="53.1,129.1 0.3,159.6 0.3,169.9 53.1,200.4 114.8,164.7 53.1,129.1 "/>
<polygon class="st0" points="114.8,88.2 53.1,52.6 53.1,129.1 114.8,164.7 114.8,88.2 "/>
<polygon class="st1" points="114.8,88.2 176.5,52.6 176.5,129.1 114.8,164.7 114.8,88.2 "/>
<polygon class="st2" points="114.8,16.9 53.1,52.6 114.8,88.2 176.5,52.6 114.8,16.9 "/>
<polygon class="st0" points="1865.4,802.2 1918.2,832.7 1918.2,756.1 1865.4,725.6 1865.4,802.2 "/>
<polygon class="st2" points="1918.2,695.1 1865.4,725.6 1918.2,756.1 1918.2,695.1 "/>
<polygon class="st10" points="546.7,129.1 485,164.7 485,88.2 546.7,52.6 546.7,129.1 "/>
<polygon class="st9" points="423.3,129.1 485,164.7 485,88.2 423.3,52.6 423.3,129.1 "/>
<polygon class="st11" points="485,16.9 423.3,52.6 485,88.2 546.7,52.6 485,16.9 "/>
<polygon class="st1" points="608.5,16.9 546.7,52.6 546.7,-6.9 608.5,-6.9 608.5,16.9 "/>
<polygon class="st0" points="485,16.9 546.7,52.6 546.7,-6.9 485,-6.9 485,16.9 "/>
<polygon class="st3" points="361.6,16.9 299.9,52.6 299.9,-6.9 361.6,-6.9 361.6,16.9 "/>
<polygon class="st5" points="238.2,16.9 299.9,52.6 299.9,-6.9 238.2,-6.9 238.2,16.9 "/>
<polygon class="st19" points="0.3,22.1 53.1,52.6 53.1,-6.9 0.3,-6.9 0.3,22.1 "/>
<polygon class="st7" points="114.8,-6.9 114.8,16.9 53.1,52.6 53.1,-6.9 114.8,-6.9 "/>
<polygon class="st13" points="1865.4,129.1 1918.2,159.6 1918.2,83.1 1865.4,52.6 1865.4,129.1 "/>
<polygon class="st15" points="1918.2,22.1 1865.4,52.6 1918.2,83.1 1918.2,22.1 "/>
<polygon class="st9" points="1918.2,307.4 1865.4,276.9 1865.4,353.5 1918.2,384 1918.2,307.4 "/>
<polygon class="st11" points="1918.2,246.4 1865.4,276.9 1918.2,307.4 1918.2,246.4 "/>
<polygon class="st3" points="1556.9,985.6 1495.2,950 1495.2,1026.5 1556.9,1062.1 1556.9,985.6 "/>
<polygon class="st4" points="1556.9,985.6 1618.6,950 1618.6,1026.5 1556.9,1062.1 1556.9,985.6 "/>
<polygon class="st5" points="1556.9,914.3 1495.2,950 1556.9,985.6 1618.6,950 1556.9,914.3 "/>
<polygon class="st7" points="526.4,1086 485,1062.1 485,1086 526.4,1086 "/>
<polygon class="st6" points="567.1,1086 608.5,1062.1 608.5,1086 567.1,1086 "/>
<polygon class="st8" points="546.7,1026.5 485,1062.1 526.4,1086 567.1,1086 608.5,1062.1 546.7,1026.5 "/>
<polygon class="st0" points="176.5,1026.5 238.2,1062.1 238.2,985.6 176.5,950 176.5,1026.5 "/>
<polygon class="st1" points="299.9,1026.5 238.2,1062.1 238.2,985.6 299.9,950 299.9,1026.5 "/>
<polygon class="st2" points="238.2,914.3 176.5,950 238.2,985.6 299.9,950 238.2,914.3 "/>
<polygon class="st1" points="0.3,756.1 53.1,725.6 53.1,802.2 0.3,832.7 0.3,756.1 "/>
<polygon class="st2" points="0.3,756.1 53.1,725.6 0.3,695.1 0.3,756.1 "/>
<polygon class="st20" points="0.3,531.8 53.1,501.3 53.1,577.8 0.3,608.3 0.3,531.8 "/>
<polygon class="st21" points="0.3,531.8 53.1,501.3 0.3,470.8 0.3,531.8 "/>
<polygon class="st18" points="443.7,1086 485,1062.1 485,1086 443.7,1086 "/>
<polygon class="st13" points="403,1086 361.6,1062.1 361.6,1086 403,1086 "/>
<polygon class="st18" points="423.3,1026.5 361.6,1062.1 403,1086 443.7,1086 485,1062.1 423.3,1026.5 "/>
<polygon class="st13" points="1865.4,873.4 1918.2,842.9 1918.2,919.5 1865.4,950 1865.4,873.4 "/>
<polygon class="st18" points="1865.4,873.4 1803.7,837.8 1803.7,914.3 1865.4,950 1865.4,873.4 "/>
<polygon class="st15" points="1865.4,802.2 1803.7,837.8 1865.4,873.4 1918.2,842.9 1918.2,832.7 1865.4,802.2 "/>
<polygon class="st18" points="1680.3,985.6 1618.6,950 1618.6,1026.5 1680.3,1062.1 1680.3,985.6 "/>
<polygon class="st13" points="1680.3,985.6 1742,950 1742,1026.5 1680.3,1062.1 1680.3,985.6 "/>
<polygon class="st15" points="1680.3,914.3 1618.6,950 1680.3,985.6 1742,950 1680.3,914.3 "/>
<polygon class="st0" points="1885.8,1086 1918.2,1067.3 1918.2,1086 1885.8,1086 "/>
<polygon class="st0" points="1845,1086 1803.7,1062.1 1803.7,1086 1845,1086 "/>
<polygon class="st2" points="1865.4,1026.5 1803.7,1062.1 1845,1086 1885.8,1086 1918.2,1067.3 1918.2,1057 1865.4,1026.5 "/>
<polygon class="st22" points="1865.4,1026.5 1918.2,1057 1918.2,980.5 1865.4,950 1865.4,1026.5 "/>
<polygon class="st23" points="1918.2,919.5 1865.4,950 1918.2,980.5 1918.2,919.5 "/>
<polygon class="st7" points="299.9,195.1 423.3,123.8 423.3,276.9 299.9,348.2 299.9,195.1 "/>
<polygon class="st19" points="299.9,195.1 176.5,123.8 176.5,276.9 299.9,348.2 299.9,195.1 "/>
<polygon class="st8" points="299.9,52.6 176.5,123.8 299.9,195.1 423.3,123.8 299.9,52.6 "/>
<polygon class="st10" points="114.8,531.6 238.2,460.3 238.2,613.4 114.8,684.7 114.8,531.6 "/>
<polygon class="st9" points="114.8,531.6 0.3,465.5 0.3,618.6 114.8,684.7 114.8,531.6 "/>
<polygon class="st11" points="114.8,389.1 0.3,455.2 0.3,465.5 114.8,531.6 238.2,460.3 114.8,389.1 "/>
<polygon class="st4" points="1803.7,531.6 1918.2,465.5 1918.2,618.6 1803.7,684.7 1803.7,531.6 "/>
<polygon class="st3" points="1803.7,531.6 1680.3,460.3 1680.3,613.4 1803.7,684.7 1803.7,531.6 "/>
<polygon class="st5" points="1803.7,389.1 1680.3,460.3 1803.7,531.6 1918.2,465.5 1918.2,455.2 1803.7,389.1 "/>
<polygon class="st10" points="1680.3,159.4 1803.7,88.2 1803.7,241.3 1680.3,312.5 1680.3,159.4 "/>
<polygon class="st9" points="1680.3,159.4 1556.9,88.2 1556.9,241.3 1680.3,312.5 1680.3,159.4 "/>
<polygon class="st11" points="1680.3,16.9 1556.9,88.2 1680.3,159.4 1803.7,88.2 1680.3,16.9 "/>
<polygon class="st1" points="1918.2,22.1 1803.7,88.2 1803.7,-6.9 1918.2,-6.9 1918.2,22.1 "/>
<polygon class="st0" points="1680.3,-6.9 1680.3,16.9 1803.7,88.2 1803.7,-6.9 1680.3,-6.9 "/>
<polygon class="st18" points="53.1,944.7 176.5,873.4 176.5,1026.5 73.5,1086 53.1,1086 53.1,944.7 "/>
<polygon class="st13" points="53.1,944.7 0.3,914.2 0.3,1067.3 32.7,1086 53.1,1086 53.1,944.7 "/>
<polygon class="st15" points="53.1,802.2 0.3,832.7 0.3,914.2 53.1,944.7 176.5,873.4 53.1,802.2 "/>
</svg>
